<svg id="Layer_1" data-name="Layer 1" xmlns="http://www.w3.org/2000/svg" viewBox="0 0 256 256"><title>icon-256x256</title><rect width="256" height="256" style="fill:#fefefe"/><g id="LoremPress_Logo_Icon" data-name="LoremPress Logo Icon"><path d="M19.15,17h217.7c1.74,0,3.15,1.76,3.15,3.94V235.06c0,2.18-1.41,3.94-3.15,3.94H19.15c-1.74,0-3.15-1.76-3.15-3.94V20.94C16,18.76,17.41,17,19.15,17Z" style="fill:#fefefe;stroke:#000;stroke-miterlimit:10;stroke-width:4px"/><g id="LoremPress_Logo_Letter" data-name="LoremPress Logo Letter"><text transform="translate(44.66 176.05)" style="isolation:isolate;font-size:168.46005249023438px;font-family:Adorable-, Adorable">L</text></g><g id="Squiggle"><path d="M140.1,116.77c4.31,0,4.31,3.1,8.63,3.1s4.31-3.1,8.62-3.1,4.31,3.1,8.63,3.1,4.31-3.1,8.62-3.1,4.32,3.1,8.63,3.1,4.31-3.1,8.62-3.1,4.32,3.1,8.63,3.1,4.31-3.1,8.62-3.1,4.32,3.1,8.63,3.1" style="fill:none;stroke:#000;stroke-miterlimit:10;stroke-width:4px"/><path d="M140.1,135.09c4.31,0,4.31,3.11,8.63,3.11s4.31-3.11,8.62-3.11,4.31,3.11,8.63,3.11,4.31-3.11,8.62-3.11,4.32,3.11,8.63,3.11,4.31-3.11,8.62-3.11,4.32,3.11,8.63,3.11,4.31-3.11,8.62-3.11,4.32,3.11,8.63,3.11" style="fill:none;stroke:#000;stroke-miterlimit:10;stroke-width:4px"/><path d="M140.1,153.42c4.31,0,4.31,3.11,8.63,3.11s4.31-3.11,8.62-3.11,4.31,3.11,8.63,3.11,4.31-3.11,8.62-3.11,4.32,3.11,8.63,3.11,4.31-3.11,8.62-3.11,4.32,3.11,8.63,3.11,4.31-3.11,8.62-3.11,4.32,3.11,8.63,3.11" style="fill:none;stroke:#000;stroke-miterlimit:10;stroke-width:4px"/><path d="M140.1,171.75c4.31,0,4.31,3.11,8.63,3.11s4.31-3.11,8.62-3.11,4.31,3.11,8.63,3.11,4.31-3.11,8.62-3.11,4.32,3.11,8.63,3.11,4.31-3.11,8.62-3.11,4.32,3.11,8.63,3.11,4.31-3.11,8.62-3.11,4.32,3.11,8.63,3.11" style="fill:none;stroke:#000;stroke-miterlimit:10;stroke-width:4px"/></g></g></svg>